<svg width="512" height="512" viewBox="0 0 512 512" fill="none" xmlns="http://www.w3.org/2000/svg">
<path d="M256 4.99805C189.43 4.99808 125.587 31.4429 78.5149 78.5149C31.4429 125.587 4.99808 189.43 4.99805 256C4.99808 322.57 31.4429 386.413 78.5149 433.485C125.587 480.557 189.43 507.002 256 507.002C322.57 507.002 386.413 480.557 433.485 433.485C480.557 386.413 507.002 322.57 507.002 256C507.002 189.43 480.557 125.587 433.485 78.5149C386.413 31.4429 322.57 4.99808 256 4.99805ZM139.838 107.25C207.594 107.251 272.713 116.468 331.139 134.324C344.283 138.341 346.426 139.362 357.883 147.059C382.881 163.853 401.79 183.868 417.957 210.648C430.246 231.006 436.16 249.644 435.529 266.023C435.26 273.005 434.99 274.265 432.861 278.406C428.13 287.614 416.053 297.97 401.539 305.268C365.234 323.521 309.895 335.658 238.875 340.941L224.869 341.982L218.357 336.039C214.776 332.77 211.731 330.224 211.59 330.381C211.448 330.538 207.955 342.464 203.824 356.885C199.694 371.305 196.183 383.493 196.023 383.969C195.864 384.444 199.188 387.435 203.408 390.615C207.628 393.796 211.086 396.731 211.092 397.137C211.098 397.543 209.701 400.506 207.988 403.723L204.875 409.572L197.859 411.68C179.778 417.115 154.349 424.209 151.588 424.59C149.079 424.935 148.393 424.762 147.801 423.631C146.943 421.99 147.874 371.533 149.09 353.561C149.873 342.017 151.731 322.162 152.512 317.002C152.876 314.596 152.658 314.239 149.348 311.826C143.478 307.549 125.104 283.683 125.619 281.006C125.941 279.336 131.137 277.901 149.113 274.516L163.516 271.803L165.897 260.982C169.063 246.59 173.561 230.34 177.281 219.857L180.314 211.311L185.578 207.772C200.889 197.476 223.484 185.688 233.904 182.559C236.871 181.668 239.194 180.837 239.068 180.711C238.579 180.222 221.015 175.88 209.531 173.41C193.77 170.021 178.3 167.527 158.762 165.225C137.287 162.694 137.143 162.609 130.01 148.203C125.003 138.092 120.182 125.383 117.695 115.744C116.124 109.654 116.08 109.02 117.178 108.174C118.073 107.484 123.799 107.25 139.838 107.25ZM243.994 181.992C243.755 182.231 224.447 259.888 224.447 260.611C224.447 261.147 226.717 260.798 241.828 257.947C271.556 252.338 296.915 246.1 315.775 239.758C325.75 236.404 339.585 230.556 343.99 227.832L346.473 226.299L344.729 225.191C322.415 211.021 295.284 198.752 260.766 187.221C251.696 184.191 244.148 181.838 243.994 181.992Z" fill="#072181"/>
</svg>
